<svg width="256" height="256" viewBox="0 0 256 256" fill="none" xmlns="http://www.w3.org/2000/svg">
<path d="M0.753906 127.75C0.753906 146.965 19.5169 164.902 49.0969 175.013C43.1899 204.75 48.0389 228.719 64.2329 238.058C80.8779 247.658 105.676 241.013 129.213 220.438C152.156 240.182 175.343 247.952 191.523 238.586C208.153 228.959 213.21 203.365 207.14 172.699C237.95 162.513 255.184 147.218 255.184 127.75C255.184 108.981 236.387 92.7441 207.205 82.6981C213.74 50.7651 208.203 27.3781 191.338 17.6531C175.079 8.2771 151.622 16.4491 128.342 36.7091C104.122 15.2051 80.8969 8.6401 64.0499 18.3921C47.8059 27.7951 43.1709 52.2001 49.0969 82.4871C20.5149 92.4521 0.753906 109.057 0.753906 127.75Z" fill="#2B2C28"/>
<path d="M201.025 92.6739C198.62 91.849 196.194 91.0847 193.751 90.3819C194.156 88.7353 194.531 87.0814 194.875 85.4209C200.381 58.6929 196.781 37.1609 184.487 30.0729C172.7 23.2749 153.422 30.3629 133.952 47.3059C132.033 48.9793 130.157 50.7008 128.326 52.4689C127.099 51.2932 125.851 50.1404 124.582 49.0109C104.177 30.8929 83.7239 23.2589 71.4429 30.3679C59.6669 37.1849 56.1789 57.4279 61.1359 82.7579C61.6291 85.2663 62.186 87.7618 62.8059 90.2419C59.9119 91.0639 57.1169 91.9399 54.4429 92.8719C30.5209 101.212 15.2429 114.284 15.2429 127.842C15.2429 141.846 31.6429 155.892 56.5609 164.408C58.5814 165.095 60.6187 165.732 62.6709 166.318C62.0042 168.99 61.4123 171.68 60.8959 174.385C56.1699 199.275 59.8609 219.038 71.6059 225.813C83.7369 232.808 104.097 225.618 123.923 208.288C125.49 206.918 127.063 205.465 128.638 203.942C130.622 205.856 132.659 207.714 134.746 209.515C153.95 226.04 172.916 232.713 184.651 225.92C196.771 218.904 200.709 197.673 195.595 171.842C195.205 169.869 194.75 167.854 194.24 165.802C195.67 165.38 197.073 164.944 198.442 164.49C224.346 155.908 241.199 142.033 241.199 127.842C241.199 114.235 225.429 101.075 201.025 92.6739V92.6739Z" fill="#3FF0D2"/>
<path d="M195.406 155.328C194.171 155.737 192.903 156.132 191.611 156.515C188.751 147.462 184.891 137.835 180.169 127.89C184.676 118.18 188.386 108.677 191.166 99.6819C193.477 100.352 195.721 101.057 197.883 101.802C218.793 108.999 231.547 119.642 231.547 127.842C231.547 136.577 217.771 147.917 195.406 155.328ZM186.126 173.717C188.387 185.139 188.71 195.466 187.212 203.539C185.866 210.793 183.16 215.629 179.814 217.566C172.693 221.688 157.464 216.33 141.042 202.198C139.159 200.578 137.262 198.848 135.36 197.018C141.727 190.054 148.09 181.958 154.3 172.968C165.224 171.999 175.544 170.414 184.903 168.251C185.363 170.111 185.773 171.934 186.126 173.717ZM92.276 216.854C85.319 219.311 79.778 219.381 76.429 217.45C69.301 213.34 66.339 197.47 70.38 176.185C70.8606 173.669 71.4108 171.168 72.03 168.683C81.285 170.73 91.53 172.203 102.48 173.091C108.731 181.888 115.278 189.974 121.876 197.055C120.474 198.411 119.038 199.733 117.571 201.019C108.804 208.683 100.019 214.119 92.277 216.854H92.276ZM59.683 155.274C48.665 151.508 39.566 146.614 33.329 141.274C27.725 136.474 24.895 131.709 24.895 127.842C24.895 119.615 37.162 109.12 57.621 101.987C60.1889 101.096 62.7824 100.28 65.398 99.5399C68.226 108.737 71.935 118.353 76.411 128.077C71.877 137.946 68.115 147.715 65.261 157.02C63.3877 156.484 61.5278 155.902 59.683 155.274ZM70.609 80.9039C66.362 59.2009 69.182 42.8299 76.279 38.7219C83.839 34.3459 100.554 40.5859 118.172 56.2289C119.298 57.2289 120.429 58.2759 121.562 59.3589C114.998 66.4079 108.511 74.4329 102.314 83.1789C91.687 84.1639 81.514 85.7459 72.162 87.8649C71.5859 85.5577 71.0681 83.2373 70.609 80.9039ZM168.076 104.971C165.867 101.155 163.576 97.3878 161.205 93.6709C168.415 94.5809 175.322 95.7909 181.808 97.2719C179.861 103.513 177.434 110.039 174.576 116.729C172.488 112.767 170.321 108.847 168.076 104.971ZM128.329 66.2569C132.781 71.0799 137.24 76.4659 141.626 82.3089C132.729 81.8885 123.817 81.8865 114.92 82.3029C119.31 76.5139 123.807 71.1359 128.329 66.2569ZM88.327 105.037C86.1104 108.882 83.9838 112.778 81.949 116.722C79.138 110.055 76.733 103.5 74.769 97.1699C81.216 95.7269 88.091 94.5479 95.254 93.6529C92.8562 97.3929 90.5466 101.189 88.327 105.037ZM95.46 162.72C88.06 161.894 81.081 160.775 74.636 159.372C76.631 152.93 79.089 146.234 81.96 139.424C84.0034 143.371 86.1393 147.269 88.366 151.116C90.6381 155.04 93.0035 158.909 95.46 162.72ZM128.596 190.109C124.021 185.172 119.458 179.712 115.001 173.839C119.327 174.009 123.738 174.095 128.221 174.095C132.827 174.095 137.38 173.992 141.861 173.792C137.461 179.772 133.018 185.24 128.596 190.109ZM174.668 139.077C177.688 145.961 180.234 152.621 182.256 158.954C175.704 160.449 168.631 161.653 161.178 162.547C163.566 158.761 165.879 154.927 168.115 151.049C170.388 147.107 172.573 143.116 174.668 139.077ZM159.753 146.227C156.33 152.173 152.715 158.006 148.913 163.717C142.209 164.196 135.281 164.443 128.221 164.443C121.19 164.443 114.35 164.224 107.763 163.797C103.862 158.099 100.179 152.256 96.72 146.28C93.2774 140.335 90.0617 134.262 87.08 128.074C90.0542 121.884 93.2601 115.807 96.691 109.858V109.86C100.121 103.909 103.776 98.0911 107.647 92.4179C114.367 91.9099 121.257 91.6439 128.222 91.6439C135.218 91.6439 142.117 91.9119 148.835 92.4239C152.667 98.0884 156.299 103.886 159.722 109.807C163.165 115.743 166.413 121.79 169.463 127.937C166.445 134.147 163.205 140.247 159.753 146.227ZM179.666 38.4349C187.232 42.7989 190.175 60.3959 185.421 83.4729C185.109 84.9763 184.771 86.4738 184.405 87.9649C175.031 85.8019 164.851 84.1919 154.193 83.1919C147.984 74.3509 141.551 66.3119 135.093 59.3539C136.785 57.7225 138.518 56.1333 140.289 54.5879C156.971 40.0699 172.562 34.3379 179.666 38.4349Z" fill="#2B2C28"/>
<path d="M128.221 107.665C139.365 107.665 148.398 116.699 148.398 127.842C148.398 138.986 139.365 148.02 128.221 148.02C117.078 148.02 108.044 138.986 108.044 127.842C108.044 116.699 117.078 107.665 128.221 107.665" fill="#3FF0D2"/>
</svg>
