<svg width="293" height="293" viewBox="0 0 293 293" fill="none" xmlns="http://www.w3.org/2000/svg">
<g clip-path="url(#clip0_42_2)">
<path d="M226.889 146.83C226.889 186.672 193.668 219.061 152.826 219.061C111.972 219.061 78.7481 186.66 78.7481 146.83C78.7481 106.997 111.979 74.599 152.826 74.599C193.662 74.598 226.889 107.002 226.889 146.83ZM152.826 47.105C156.912 47.105 160.231 43.866 160.231 39.881V9.776C160.231 5.78 156.919 2.552 152.826 2.552C148.728 2.552 145.412 5.785 145.412 9.776V39.881C145.412 43.866 148.722 47.105 152.826 47.105ZM226.544 83.821C228.44 83.821 230.337 83.118 231.778 81.707L258.319 55.832C261.213 53 261.213 48.422 258.319 45.606C255.425 42.795 250.744 42.795 247.851 45.606L221.31 71.493C218.416 74.321 218.416 78.89 221.31 81.707C222.757 83.119 224.647 83.821 226.544 83.821ZM62.0452 81.708C63.4952 83.113 65.3954 83.822 67.2792 83.822C69.1794 83.822 71.0755 83.119 72.5255 81.708C75.4194 78.886 75.4194 74.322 72.5255 71.494L45.974 45.607C43.0801 42.796 38.3999 42.796 35.506 45.607C32.6121 48.429 32.6121 53.002 35.506 55.833L62.0452 81.708ZM146.912 245.447C142.821 245.447 139.51 248.689 139.51 252.671V282.773C139.51 286.76 142.826 289.997 146.912 289.997C150.999 289.997 154.329 286.767 154.329 282.773V252.67C154.329 248.689 151.004 245.447 146.912 245.447ZM67.9478 210.847L41.4086 236.727C38.5147 239.549 38.5147 244.125 41.4086 246.935C42.8586 248.347 44.7588 249.055 46.6549 249.055C48.5541 249.055 50.4389 248.353 51.8889 246.935L78.4292 221.055C81.3231 218.233 81.3231 213.657 78.4292 210.847C75.5343 208.031 70.8417 208.031 67.9478 210.847ZM237.689 210.847C234.795 208.031 230.109 208.031 227.215 210.847C224.321 213.669 224.321 218.233 227.215 221.055L253.755 246.935C255.201 248.347 257.098 249.055 259.001 249.055C260.898 249.055 262.783 248.353 264.229 246.935C267.123 244.113 267.123 239.549 264.229 236.727L237.689 210.847ZM48.1562 146.83C48.1562 142.834 44.8244 139.606 40.739 139.606H7.40186C3.31023 139.606 0 142.834 0 146.83C0 150.823 3.31535 154.054 7.40186 154.054H40.74C44.8316 154.053 48.1562 150.823 48.1562 146.83ZM292.592 139.606H253.084C248.995 139.606 245.682 142.834 245.682 146.83C245.682 150.823 248.994 154.054 253.084 154.054H292.592C296.681 154.054 300 150.824 300 146.83C300 142.833 296.682 139.606 292.592 139.606Z" fill="#8257E6"/>
</g>
<defs>
<clipPath id="clip0_42_2">
<rect width="292.548" height="292.548" fill="white"/>
</clipPath>
</defs>
</svg>
