<svg width="400" height="400" viewBox="0 0 400 400" fill="none" xmlns="http://www.w3.org/2000/svg">
<g clip-path="url(#clip0_36_25)">
<path d="M0 200V0H400V400H0" fill="#8257E6"/>
<path d="M87.7 200.7V217H139.7V365H176.6V217H228.6V201C228.6 192 228.6 184.7 228.2 184.5C228.2 184.2 196.5 184.1 158 184.1L88 184.4V200.8L87.7 200.7V200.7ZM321.4 184C331.6 186.4 339.4 191 346.4 198.3C350.1 202.3 355.6 209.3 356 211.1C356 211.7 338.7 223.4 328.2 229.9C327.8 230.2 326.2 228.5 324.6 225.9C319.4 218.5 314.1 215.3 305.8 214.7C293.8 213.9 285.8 220.2 285.8 230.7C285.8 233.9 286.4 235.7 287.6 238.3C290.3 243.8 295.3 247.1 310.8 253.9C339.4 266.2 351.8 274.3 359.3 285.9C367.8 298.9 369.7 319.3 364 334.6C357.6 351.3 342 362.6 319.7 366.3C312.7 367.5 296.7 367.3 289.2 366C273.2 363 257.9 355 248.5 344.7C244.8 340.7 237.7 330 238.1 329.3L241.9 326.9L256.9 318.2L268.2 311.6L270.8 315.1C274.1 320.3 281.5 327.3 285.8 329.7C298.8 336.4 316.2 335.5 324.8 327.7C328.5 324.3 330.1 320.7 330.1 315.7C330.1 311.1 329.4 309 327.1 305.5C323.9 301.1 317.5 297.5 299.5 289.5C278.8 280.7 270 275.1 261.8 266.5C257.1 261.3 252.8 253.2 250.8 246.5C249.3 240.7 248.8 226.5 250.2 220.8C254.5 200.8 269.6 186.8 291.2 182.8C298.2 181.4 314.7 182 321.6 183.8L321.4 184V184Z" fill="#2B2C28"/>
</g>
<defs>
<clipPath id="clip0_36_25">
<rect width="400" height="400" fill="white"/>
</clipPath>
</defs>
</svg>
